<?xml version="1.0" encoding="UTF-8"?>
<!DOCTYPE svg PUBLIC "-//W3C//DTD SVG 1.1//EN" "http://www.w3.org/Graphics/SVG/1.1/DTD/svg11.dtd">
<svg xmlns="http://www.w3.org/2000/svg" version="1.1" width="3071px" height="472px" style="shape-rendering:geometricPrecision; text-rendering:geometricPrecision; image-rendering:optimizeQuality; fill-rule:evenodd; clip-rule:evenodd" xmlns:xlink="http://www.w3.org/1999/xlink">
<g><path style="opacity:0.979" fill="#fefffe" d="M 1911.5,27.5 C 1917.17,27.5 1922.83,27.5 1928.5,27.5C 1928.5,50.8333 1928.5,74.1667 1928.5,97.5C 1896.25,95.2699 1873.75,108.937 1861,138.5C 1859.68,143.1 1858.68,147.766 1858,152.5C 1857.67,209.833 1857.33,267.167 1857,324.5C 1850.56,375.604 1824.06,412.104 1777.5,434C 1758.16,441.216 1738.16,444.382 1717.5,443.5C 1717.5,419.833 1717.5,396.167 1717.5,372.5C 1752.45,374.784 1775.62,359.45 1787,326.5C 1788.04,264.521 1789.04,202.521 1790,140.5C 1797.99,93.1858 1823.49,59.0191 1866.5,38C 1881.09,32.1203 1896.09,28.6203 1911.5,27.5 Z"/></g>
<g><path style="opacity:0.983" fill="#fefffe" d="M 1987.5,34.5 C 2010.5,34.5 2033.5,34.5 2056.5,34.5C 2056.5,63.1667 2056.5,91.8333 2056.5,120.5C 2080.17,120.5 2103.83,120.5 2127.5,120.5C 2127.5,143.833 2127.5,167.167 2127.5,190.5C 2103.83,190.5 2080.17,190.5 2056.5,190.5C 2056.33,210.169 2056.5,229.836 2057,249.5C 2065.38,287.118 2088.88,305.118 2127.5,303.5C 2127.5,326.833 2127.5,350.167 2127.5,373.5C 2069.37,375.497 2026.87,350.83 2000,299.5C 1992.86,283.596 1988.86,266.929 1988,249.5C 1987.5,229.836 1987.33,210.169 1987.5,190.5C 1976.5,190.5 1965.5,190.5 1954.5,190.5C 1954.5,167.167 1954.5,143.833 1954.5,120.5C 1965.5,120.5 1976.5,120.5 1987.5,120.5C 1987.5,91.8333 1987.5,63.1667 1987.5,34.5 Z"/></g>
<g><path style="opacity:0.982" fill="#fefffe" d="M 2705.5,34.5 C 2728.5,34.5 2751.5,34.5 2774.5,34.5C 2774.5,86.1667 2774.5,137.833 2774.5,189.5C 2807.83,189.5 2841.17,189.5 2874.5,189.5C 2874.5,166.5 2874.5,143.5 2874.5,120.5C 2897.5,120.5 2920.5,120.5 2943.5,120.5C 2943.5,201.5 2943.5,282.5 2943.5,363.5C 2920.5,363.5 2897.5,363.5 2874.5,363.5C 2874.5,328.833 2874.5,294.167 2874.5,259.5C 2841.17,259.5 2807.83,259.5 2774.5,259.5C 2774.5,294.167 2774.5,328.833 2774.5,363.5C 2751.5,363.5 2728.5,363.5 2705.5,363.5C 2705.5,253.833 2705.5,144.167 2705.5,34.5 Z"/></g>
<g><path style="opacity:0.979" fill="#fefffe" d="M 1468.5,42.5 C 1469.5,42.4142 1470.33,42.7476 1471,43.5C 1525.95,112.123 1581.29,180.456 1637,248.5C 1637.5,205.835 1637.67,163.168 1637.5,120.5C 1660.5,120.5 1683.5,120.5 1706.5,120.5C 1706.83,227.502 1706.5,334.502 1705.5,441.5C 1649.89,372.713 1594.05,304.046 1538,235.5C 1537.5,278.165 1537.33,320.832 1537.5,363.5C 1514.5,363.5 1491.5,363.5 1468.5,363.5C 1468.5,256.5 1468.5,149.5 1468.5,42.5 Z"/></g>
<g><path style="opacity:0.978" fill="#fefffe" d="M 383.5,85.5 C 406.5,85.5 429.5,85.5 452.5,85.5C 452.167,98.85 452.501,112.183 453.5,125.5C 474.367,114.034 496.7,109.034 520.5,110.5C 520.5,133.833 520.5,157.167 520.5,180.5C 490.956,179.188 469.789,191.855 457,218.5C 455.198,223.375 453.865,228.375 453,233.5C 452.5,276.832 452.333,320.165 452.5,363.5C 429.5,363.5 406.5,363.5 383.5,363.5C 383.5,270.833 383.5,178.167 383.5,85.5 Z"/></g>
<g><path style="opacity:0.985" fill="#fefffe" d="M 739.5,85.5 C 762.5,85.5 785.5,85.5 808.5,85.5C 808.5,189.5 808.5,293.5 808.5,397.5C 785.5,397.5 762.5,397.5 739.5,397.5C 739.667,384.496 739.5,371.496 739,358.5C 715.443,371.411 690.276,376.244 663.5,373C 615.466,364.969 581.3,338.803 561,294.5C 548.333,259.497 548.333,224.497 561,189.5C 589.852,130.069 637.186,104.403 703,112.5C 715.729,114.867 727.729,119.2 739,125.5C 739.5,112.171 739.667,98.8375 739.5,85.5 Z M 670.5,180.5 C 701.444,178.89 723.277,192.223 736,220.5C 745.221,252.513 736.054,277.68 708.5,296C 671.141,311.407 642.975,301.241 624,265.5C 613.726,233.654 622.226,208.154 649.5,189C 656.153,185.066 663.153,182.233 670.5,180.5 Z"/></g>
<g><path style="opacity:0.982" fill="#fefffe" d="M 893.5,96.5 C 901.078,102.572 908.244,109.239 915,116.5C 939.27,142.026 963.77,167.359 988.5,192.5C 1020.18,160.658 1051.68,128.658 1083,96.5C 1099.1,112.6 1115.27,128.767 1131.5,145C 1095.7,182.471 1059.53,219.638 1023,256.5C 1022.5,315.166 1022.33,373.832 1022.5,432.5C 999.833,432.5 977.167,432.5 954.5,432.5C 954.667,373.499 954.5,314.499 954,255.5C 917.985,218.986 882.152,182.319 846.5,145.5C 861.824,128.843 877.49,112.509 893.5,96.5 Z"/></g>
<g><path style="opacity:0.98" fill="#fefffe" d="M 240.5,110.5 C 281.266,107.196 316.266,119.529 345.5,147.5C 330.351,164.483 315.018,181.316 299.5,198C 298.5,198.667 297.5,198.667 296.5,198C 280.678,181.958 261.678,176.624 239.5,182C 218.093,189.074 203.593,203.24 196,224.5C 188.898,259.462 201.398,284.628 233.5,300C 258.069,308.052 279.569,303.219 298,285.5C 314.01,301.844 329.677,318.51 345,335.5C 345.667,336.167 345.667,336.833 345,337.5C 314.851,365.883 279.018,377.716 237.5,373C 184.264,363.768 148.764,333.602 131,282.5C 114.446,215.789 134.613,163.623 191.5,126C 207.036,117.875 223.369,112.708 240.5,110.5 Z"/></g>
<g><path style="opacity:0.983" fill="#fefffe" d="M 1276.5,110.5 C 1333.02,107.34 1375.52,130.007 1404,178.5C 1423.37,218.372 1424.37,258.705 1407,299.5C 1374.33,358.917 1324.49,382.417 1257.5,370C 1215.96,357.142 1186.79,330.642 1170,290.5C 1151.9,235.307 1162.73,186.807 1202.5,145C 1223.54,125.646 1248.21,114.146 1276.5,110.5 Z M 1281.5,180.5 C 1314.2,179.266 1336.37,193.932 1348,224.5C 1355.1,259.462 1342.6,284.628 1310.5,300C 1276.46,308.898 1251.29,297.731 1235,266.5C 1223.72,230.551 1234.56,203.384 1267.5,185C 1272.18,183.17 1276.85,181.67 1281.5,180.5 Z"/></g>
<g><path style="opacity:0.985" fill="#fefffe" d="M 2276.5,110.5 C 2336.18,107.748 2379.68,132.748 2407,185.5C 2412.7,198.614 2416.37,212.28 2418,226.5C 2418.5,246.831 2418.67,267.164 2418.5,287.5C 2356.17,287.5 2293.83,287.5 2231.5,287.5C 2236.69,311.194 2250.69,327.361 2273.5,336C 2282.36,338.16 2291.36,338.993 2300.5,338.5C 2300.5,361.833 2300.5,385.167 2300.5,408.5C 2244.96,410.324 2203.46,387.324 2176,339.5C 2168.39,324.725 2163.72,309.058 2162,292.5C 2161.08,267.804 2161.41,243.138 2163,218.5C 2172.48,171.687 2198.98,138.521 2242.5,119C 2253.66,114.878 2264.99,112.044 2276.5,110.5 Z M 2280.5,180.5 C 2310.02,178.558 2331.35,190.724 2344.5,217C 2308.16,217.833 2271.83,217.667 2235.5,216.5C 2245.05,197.574 2260.05,185.574 2280.5,180.5 Z"/></g>
<g><path style="opacity:0.98" fill="#fefffe" d="M 2562.5,110.5 C 2603.27,107.196 2638.27,119.529 2667.5,147.5C 2652.35,164.483 2637.02,181.316 2621.5,198C 2620.5,198.667 2619.5,198.667 2618.5,198C 2602.68,181.958 2583.68,176.624 2561.5,182C 2533.37,192.137 2518.04,212.137 2515.5,242C 2517.19,269.375 2530.52,288.708 2555.5,300C 2579.52,308.061 2600.52,303.395 2618.5,286C 2619.5,285.333 2620.5,285.333 2621.5,286C 2636.67,302.5 2651.83,319 2667,335.5C 2666.11,338.436 2664.27,340.936 2661.5,343C 2625.38,372.029 2584.71,380.695 2539.5,369C 2496.67,354.167 2467.83,325.333 2453,282.5C 2436.33,214.735 2457.16,162.235 2515.5,125C 2530.45,117.402 2546.12,112.569 2562.5,110.5 Z"/></g>
</svg>
