<?xml version="1.0" encoding="UTF-8"?>
<!DOCTYPE svg PUBLIC "-//W3C//DTD SVG 1.1//EN" "http://www.w3.org/Graphics/SVG/1.1/DTD/svg11.dtd">
<svg xmlns="http://www.w3.org/2000/svg" version="1.1" width="3071px" height="472px" style="shape-rendering:geometricPrecision; text-rendering:geometricPrecision; image-rendering:optimizeQuality; fill-rule:evenodd; clip-rule:evenodd" xmlns:xlink="http://www.w3.org/1999/xlink">
<g><path style="opacity:0.986" fill="#1e394b" d="M 1912.5,27.5 C 1917.83,27.5 1923.17,27.5 1928.5,27.5C 1928.5,50.8333 1928.5,74.1667 1928.5,97.5C 1896.03,95.6462 1873.53,109.646 1861,139.5C 1859.36,144.714 1858.36,150.047 1858,155.5C 1857.67,212.833 1857.33,270.167 1857,327.5C 1849.04,379.452 1820.88,415.619 1772.5,436C 1754.94,441.582 1736.94,444.082 1718.5,443.5C 1718.5,419.833 1718.5,396.167 1718.5,372.5C 1752.87,374.908 1775.7,359.908 1787,327.5C 1787.94,323.886 1788.61,320.219 1789,316.5C 1789.33,258.833 1789.67,201.167 1790,143.5C 1798.29,88.7398 1828.46,51.9064 1880.5,33C 1891.16,30.267 1901.83,28.4337 1912.5,27.5 Z"/></g>
<g><path style="opacity:0.988" fill="#3c6c84" d="M 1988.5,34.5 C 2011.17,34.5 2033.83,34.5 2056.5,34.5C 2056.5,63.1667 2056.5,91.8333 2056.5,120.5C 2080.17,120.5 2103.83,120.5 2127.5,120.5C 2127.5,143.833 2127.5,167.167 2127.5,190.5C 2103.83,190.5 2080.17,190.5 2056.5,190.5C 2056.33,209.17 2056.5,227.836 2057,246.5C 2061.28,277.108 2078.44,295.942 2108.5,303C 2114.82,303.5 2121.16,303.666 2127.5,303.5C 2127.5,326.833 2127.5,350.167 2127.5,373.5C 2068.03,375.355 2025.19,349.689 1999,296.5C 1993.79,284.332 1990.46,271.665 1989,258.5C 1988.5,235.836 1988.33,213.169 1988.5,190.5C 1977.17,190.5 1965.83,190.5 1954.5,190.5C 1954.5,167.167 1954.5,143.833 1954.5,120.5C 1965.83,120.5 1977.17,120.5 1988.5,120.5C 1988.5,91.8333 1988.5,63.1667 1988.5,34.5 Z"/></g>
<g><path style="opacity:0.993" fill="#3c6c84" d="M 2706.5,34.5 C 2729.17,34.5 2751.83,34.5 2774.5,34.5C 2774.5,86.1667 2774.5,137.833 2774.5,189.5C 2808.17,189.5 2841.83,189.5 2875.5,189.5C 2875.5,166.5 2875.5,143.5 2875.5,120.5C 2898.17,120.5 2920.83,120.5 2943.5,120.5C 2943.5,201.5 2943.5,282.5 2943.5,363.5C 2920.83,363.5 2898.17,363.5 2875.5,363.5C 2875.5,328.833 2875.5,294.167 2875.5,259.5C 2841.83,259.5 2808.17,259.5 2774.5,259.5C 2774.5,294.167 2774.5,328.833 2774.5,363.5C 2751.83,363.5 2729.17,363.5 2706.5,363.5C 2706.5,253.833 2706.5,144.167 2706.5,34.5 Z"/></g>
<g><path style="opacity:0.988" fill="#1e394b" d="M 1469.5,42.5 C 1526.13,111.063 1582.29,180.063 1638,249.5C 1638.5,206.501 1638.67,163.501 1638.5,120.5C 1661.17,120.5 1683.83,120.5 1706.5,120.5C 1706.67,227.501 1706.5,334.501 1706,441.5C 1649.62,372.79 1593.62,303.79 1538,234.5C 1537.5,277.499 1537.33,320.499 1537.5,363.5C 1514.83,363.5 1492.17,363.5 1469.5,363.5C 1469.5,256.5 1469.5,149.5 1469.5,42.5 Z"/></g>
<g><path style="opacity:0.988" fill="#1e394b" d="M 384.5,85.5 C 407.167,85.5 429.833,85.5 452.5,85.5C 452.167,98.85 452.501,112.183 453.5,125.5C 474.41,114.251 496.743,109.251 520.5,110.5C 520.5,133.833 520.5,157.167 520.5,180.5C 490.554,179.291 469.387,192.291 457,219.5C 454.879,224.982 453.546,230.649 453,236.5C 452.5,278.832 452.333,321.165 452.5,363.5C 429.833,363.5 407.167,363.5 384.5,363.5C 384.5,270.833 384.5,178.167 384.5,85.5 Z"/></g>
<g><path style="opacity:0.988" fill="#1e394b" d="M 740.5,85.5 C 763.167,85.5 785.833,85.5 808.5,85.5C 808.5,189.5 808.5,293.5 808.5,397.5C 785.833,397.5 763.167,397.5 740.5,397.5C 740.832,384.483 740.499,371.483 739.5,358.5C 716.153,371.469 691.153,376.302 664.5,373C 618.688,365.849 585.188,341.682 564,300.5C 547.722,262.311 547.388,223.978 563,185.5C 592.001,129.892 637.834,105.392 700.5,112C 714.297,114.21 727.297,118.71 739.5,125.5C 740.499,112.183 740.833,98.85 740.5,85.5 Z M 670.5,180.5 C 706.005,179.177 728.838,195.511 739,229.5C 743.031,262.276 730.197,285.776 700.5,300C 665.377,308.855 639.877,297.021 624,264.5C 614.337,233.156 622.837,207.989 649.5,189C 656.182,185.058 663.182,182.225 670.5,180.5 Z"/></g>
<g><path style="opacity:0.977" fill="#1e394b" d="M 893.5,96.5 C 904.747,106.243 915.58,116.576 926,127.5C 947,149.167 968,170.833 989,192.5C 1020.35,160.321 1051.85,128.321 1083.5,96.5C 1100.2,112.197 1116.2,128.53 1131.5,145.5C 1095.85,182.319 1060.01,218.986 1024,255.5C 1023.5,314.499 1023.33,373.499 1023.5,432.5C 1000.5,432.5 977.5,432.5 954.5,432.5C 954.667,373.499 954.5,314.499 954,255.5C 917.985,218.986 882.152,182.319 846.5,145.5C 862.552,129.449 878.219,113.116 893.5,96.5 Z"/></g>
<g><path style="opacity:0.98" fill="#1e394b" d="M 240.5,110.5 C 275.299,107.529 306.632,116.363 334.5,137C 338.846,140.012 342.512,143.679 345.5,148C 330.179,164.655 314.846,181.322 299.5,198C 298.5,198.667 297.5,198.667 296.5,198C 281.073,181.859 262.406,176.526 240.5,182C 212.053,191.626 196.386,211.459 193.5,241.5C 195.904,272.06 211.571,292.227 240.5,302C 255.433,305.146 269.767,303.48 283.5,297C 288.642,293.358 293.642,289.525 298.5,285.5C 314.507,302.174 330.173,319.174 345.5,336.5C 325.064,357.717 300.064,369.883 270.5,373C 205.587,377.305 160.087,349.805 134,290.5C 119.161,246.883 123.827,205.55 148,166.5C 170.673,134.321 201.507,115.655 240.5,110.5 Z"/></g>
<g><path style="opacity:0.983" fill="#1e394b" d="M 1277.5,110.5 C 1339.4,108.183 1383.56,134.85 1410,190.5C 1429.86,247.221 1419.02,297.055 1377.5,340C 1342.86,370.537 1302.86,380.537 1257.5,370C 1224.15,359.985 1198.32,340.152 1180,310.5C 1161.62,276.61 1157.28,240.943 1167,203.5C 1185.23,150.085 1222.06,119.085 1277.5,110.5 Z M 1281.5,180.5 C 1312.44,178.89 1334.28,192.223 1347,220.5C 1356.25,252.421 1347.08,277.588 1319.5,296C 1282.14,311.407 1253.97,301.241 1235,265.5C 1224.29,230.947 1234.46,204.447 1265.5,186C 1270.85,183.83 1276.18,181.997 1281.5,180.5 Z"/></g>
<g><path style="opacity:0.985" fill="#3c6c84" d="M 2276.5,110.5 C 2338.2,107.757 2382.37,134.09 2409,189.5C 2415.41,205.538 2418.74,222.204 2419,239.5C 2419.5,255.497 2419.67,271.497 2419.5,287.5C 2356.83,287.5 2294.17,287.5 2231.5,287.5C 2237.33,312.829 2252.66,329.329 2277.5,337C 2285.11,338.262 2292.78,338.762 2300.5,338.5C 2300.5,361.833 2300.5,385.167 2300.5,408.5C 2246.55,410.447 2205.72,388.447 2178,342.5C 2168.63,325.706 2163.3,307.706 2162,288.5C 2161.33,269.167 2161.33,249.833 2162,230.5C 2167.93,178.096 2194.77,140.929 2242.5,119C 2253.67,114.94 2265,112.106 2276.5,110.5 Z M 2281.5,180.5 C 2310.44,178.8 2331.44,190.8 2344.5,216.5C 2308.17,217.833 2271.83,217.833 2235.5,216.5C 2245.32,197.331 2260.66,185.331 2281.5,180.5 Z"/></g>
<g><path style="opacity:0.98" fill="#3c6c84" d="M 2562.5,110.5 C 2599.8,107.234 2632.8,117.401 2661.5,141C 2663.89,143.05 2665.89,145.384 2667.5,148C 2652.18,164.655 2636.85,181.322 2621.5,198C 2620.5,198.667 2619.5,198.667 2618.5,198C 2603.07,181.859 2584.41,176.526 2562.5,182C 2533.75,191.748 2518.09,211.748 2515.5,242C 2518.14,272.299 2533.81,292.299 2562.5,302C 2584.96,307.055 2604.29,301.555 2620.5,285.5C 2636.51,302.174 2652.17,319.174 2667.5,336.5C 2647.06,357.717 2622.06,369.883 2592.5,373C 2536.84,377.754 2494.34,356.587 2465,309.5C 2444.5,270.238 2442.16,229.905 2458,188.5C 2479.07,143.911 2513.91,117.911 2562.5,110.5 Z"/></g>
</svg>
